<?xml version="1.0" encoding="UTF-8" standalone="no"?>
<svg
   version="1.1"
   x="0px"
   y="0px"
   viewBox="0 0 100 100"
   id="svg2"
   sodipodi:docname="noun-menu-1780117.svg"
   width="100"
   height="100"
   inkscape:version="1.4.2 (f4327f4, 2025-05-13)"
   xmlns:inkscape="http://www.inkscape.org/namespaces/inkscape"
   xmlns:sodipodi="http://sodipodi.sourceforge.net/DTD/sodipodi-0.dtd"
   xmlns="http://www.w3.org/2000/svg"
   xmlns:svg="http://www.w3.org/2000/svg">
  <defs
     id="defs2" />
  <sodipodi:namedview
     id="namedview2"
     pagecolor="#000000"
     bordercolor="#000000"
     borderopacity="0.25"
     inkscape:showpageshadow="2"
     inkscape:pageopacity="0.0"
     inkscape:pagecheckerboard="0"
     inkscape:deskcolor="#d1d1d1"
     inkscape:zoom="3.092"
     inkscape:cx="55.465718"
     inkscape:cy="42.852523"
     inkscape:window-width="1920"
     inkscape:window-height="991"
     inkscape:window-x="2391"
     inkscape:window-y="-9"
     inkscape:window-maximized="1"
     inkscape:current-layer="svg2" />
  <g
     transform="translate(0,-952.36219)"
     id="g1"
     style="fill:#ffffff">
    <path
       style="color:#000000;text-indent:0;text-transform:none;direction:ltr;baseline-shift:baseline;fill:#ffffff;enable-background:accumulate"
       d="m 16,967.36218 c -3.3137,0 -6,2.6862 -6,6 0,3.3136 2.6863,6 6,6 h 68 c 3.3137,0 6,-2.6864 6,-6 0,-3.3138 -2.6863,-6 -6,-6 z m 0,29 c -3.3137,0 -6,2.6862 -6,6.00002 0,3.3136 2.6863,6 6,6 h 68 c 3.3137,0 6,-2.6864 6,-6 0,-3.31382 -2.6863,-6.00002 -6,-6.00002 z m 0,29.00002 c -3.3137,0 -6,2.6862 -6,6 0,3.3136 2.6863,6 6,6 h 68 c 3.3137,0 6,-2.6864 6,-6 0,-3.3138 -2.6863,-6 -6,-6 z"
       fill="#000000"
       fill-opacity="1"
       marker="none"
       visibility="visible"
       display="inline"
       overflow="visible"
       id="path1" />
  </g>
</svg>
